HIERARCHY
ROOT Hips
{
	OFFSET -14.64140 90.27770 -84.91600
	CHANNELS 6 Xposition Yposition Zposition Zrotation Xrotation Yrotation
	JOINT Spine
	{
		OFFSET 0.00000 13.20850 -1.60436
		CHANNELS 3 Zrotation Xrotation Yrotation
		JOINT Spine1
		{
			OFFSET 0.00000 8.61716 0.00000
			CHANNELS 3 Zrotation Xrotation Yrotation
			JOINT Spine2
			{
				OFFSET 0.00000 8.61717 0.00000
				CHANNELS 3 Zrotation Xrotation Yrotation
				JOINT Spine3
				{
					OFFSET 0.00000 8.61717 0.00000
					CHANNELS 3 Zrotation Xrotation Yrotation
					JOINT Neck
					{
						OFFSET 0.00000 11.07920 1.10792
						CHANNELS 3 Zrotation Xrotation Yrotation
						JOINT Neck1
						{
							OFFSET 0.00000 7.08032 0.00000
							CHANNELS 3 Zrotation Xrotation Yrotation
							JOINT Head
							{
								OFFSET 0.00000 7.08031 0.00000
								CHANNELS 3 Zrotation Xrotation Yrotation
								End site
								{
									OFFSET 0.00000 0.00000 0.00000
								}
							}
						}
					}
					JOINT RightShoulder
					{
						OFFSET -0.01000 7.91373 5.19711
						CHANNELS 3 Zrotation Xrotation Yrotation
						JOINT RightArm
						{
							OFFSET -18.41580 0.00000 0.00000
							CHANNELS 3 Zrotation Xrotation Yrotation
							JOINT RightForeArm
							{
								OFFSET -29.11090 0.00000 0.00000
								CHANNELS 3 Zrotation Xrotation Yrotation
								JOINT RightHand
								{
									OFFSET -24.65040 0.00000 0.00000
									CHANNELS 3 Zrotation Xrotation Yrotation
									JOINT RightHandThumb1
									{
										OFFSET -5.35114 -0.85590 3.97906
										CHANNELS 3 Zrotation Xrotation Yrotation
										JOINT RightHandThumb2
										{
											OFFSET -4.52789 0.00000 0.00000
											CHANNELS 3 Zrotation Xrotation Yrotation
											JOINT RightHandThumb3
											{
												OFFSET -2.46976 0.00000 0.00000
												CHANNELS 3 Zrotation Xrotation Yrotation
												End site
												{
													OFFSET 0.00000 0.00000 0.00000
												}
											}
										}
									}
									JOINT RightHandIndex1
									{
										OFFSET -14.26970 0.00000 2.88139
										CHANNELS 3 Zrotation Xrotation Yrotation
										JOINT RightHandIndex2
										{
											OFFSET -5.48836 0.00000 0.00000
											CHANNELS 3 Zrotation Xrotation Yrotation
											JOINT RightHandIndex3
											{
												OFFSET -3.01859 0.00000 0.00000
												CHANNELS 3 Zrotation Xrotation Yrotation
												End site
												{
													OFFSET 0.00000 0.00000 0.00000
												}
											}
										}
									}
									JOINT RightHandMiddle1
									{
										OFFSET -14.26970 0.00000 -0.09147
										CHANNELS 3 Zrotation Xrotation Yrotation
										JOINT RightHandMiddle2
										{
											OFFSET -6.17441 0.00000 0.00000
											CHANNELS 3 Zrotation Xrotation Yrotation
											JOINT RightHandMiddle3
											{
												OFFSET -3.56743 0.00000 0.00000
												CHANNELS 3 Zrotation Xrotation Yrotation
												End site
												{
													OFFSET 0.00000 0.00000 0.00000
												}
											}
										}
									}
									JOINT RightHandRing1
									{
										OFFSET -12.69180 0.00000 -3.06433
										CHANNELS 3 Zrotation Xrotation Yrotation
										JOINT RightHandRing2
										{
											OFFSET -5.62556 0.00000 0.00000
											CHANNELS 3 Zrotation Xrotation Yrotation
											JOINT RightHandRing3
											{
												OFFSET -3.56744 0.00000 0.00000
												CHANNELS 3 Zrotation Xrotation Yrotation
												End site
												{
													OFFSET 0.00000 0.00000 0.00000
												}
											}
										}
									}
									JOINT RightHandPinky1
									{
										OFFSET -11.11390 0.00000 -6.03719
										CHANNELS 3 Zrotation Xrotation Yrotation
										JOINT RightHandPinky2
										{
											OFFSET -4.52789 0.00000 0.00000
											CHANNELS 3 Zrotation Xrotation Yrotation
											JOINT RightHandPinky3
											{
												OFFSET -2.46976 0.00000 0.00000
												CHANNELS 3 Zrotation Xrotation Yrotation
												End site
												{
													OFFSET 0.00000 0.00000 0.00000
												}
											}
										}
									}
								}
							}
						}
					}
					JOINT LeftShoulder
					{
						OFFSET 0.01000 7.91373 5.19711
						CHANNELS 3 Zrotation Xrotation Yrotation
						JOINT LeftArm
						{
							OFFSET 18.41580 0.00000 0.00000
							CHANNELS 3 Zrotation Xrotation Yrotation
							JOINT LeftForeArm
							{
								OFFSET 29.11090 0.00000 0.00000
								CHANNELS 3 Zrotation Xrotation Yrotation
								JOINT LeftHand
								{
									OFFSET 24.65040 0.00000 0.00000
									CHANNELS 3 Zrotation Xrotation Yrotation
									JOINT LeftHandThumb1
									{
										OFFSET 5.35114 -0.85590 3.97906
										CHANNELS 3 Zrotation Xrotation Yrotation
										JOINT LeftHandThumb2
										{
											OFFSET 4.52789 0.00000 0.00000
											CHANNELS 3 Zrotation Xrotation Yrotation
											JOINT LeftHandThumb3
											{
												OFFSET 2.46977 0.00000 0.00000
												CHANNELS 3 Zrotation Xrotation Yrotation
												End site
												{
													OFFSET 0.00000 0.00000 0.00000
												}
											}
										}
									}
									JOINT LeftHandIndex1
									{
										OFFSET 14.26970 0.00000 2.88139
										CHANNELS 3 Zrotation Xrotation Yrotation
										JOINT LeftHandIndex2
										{
											OFFSET 5.48836 0.00000 0.00000
											CHANNELS 3 Zrotation Xrotation Yrotation
											JOINT LeftHandIndex3
											{
												OFFSET 3.01859 0.00000 0.00000
												CHANNELS 3 Zrotation Xrotation Yrotation
												End site
												{
													OFFSET 0.00000 0.00000 0.00000
												}
											}
										}
									}
									JOINT LeftHandMiddle1
									{
										OFFSET 14.26970 0.00000 -0.09147
										CHANNELS 3 Zrotation Xrotation Yrotation
										JOINT LeftHandMiddle2
										{
											OFFSET 6.17440 0.00000 0.00000
											CHANNELS 3 Zrotation Xrotation Yrotation
											JOINT LeftHandMiddle3
											{
												OFFSET 3.56744 0.00000 0.00000
												CHANNELS 3 Zrotation Xrotation Yrotation
												End site
												{
													OFFSET 0.00000 0.00000 0.00000
												}
											}
										}
									}
									JOINT LeftHandRing1
									{
										OFFSET 12.69180 0.00000 -3.06433
										CHANNELS 3 Zrotation Xrotation Yrotation
										JOINT LeftHandRing2
										{
											OFFSET 5.62556 0.00000 0.00000
											CHANNELS 3 Zrotation Xrotation Yrotation
											JOINT LeftHandRing3
											{
												OFFSET 3.56744 0.00000 0.00000
												CHANNELS 3 Zrotation Xrotation Yrotation
												End site
												{
													OFFSET 0.00000 0.00000 0.00000
												}
											}
										}
									}
									JOINT LeftHandPinky1
									{
										OFFSET 11.11390 0.00000 -6.03719
										CHANNELS 3 Zrotation Xrotation Yrotation
										JOINT LeftHandPinky2
										{
											OFFSET 4.52789 0.00000 0.00000
											CHANNELS 3 Zrotation Xrotation Yrotation
											JOINT LeftHandPinky3
											{
												OFFSET 2.46976 0.00000 0.00000
												CHANNELS 3 Zrotation Xrotation Yrotation
												End site
												{
													OFFSET 0.00000 0.00000 0.00000
												}
											}
										}
									}
								}
							}
						}
					}
					JOINT pCube4
					{
						OFFSET 0.00000 10.91090 1.10792
						CHANNELS 3 Zrotation Xrotation Yrotation
						End site
						{
							OFFSET 0.00000 0.00000 0.00000
						}
					}
				}
			}
		}
	}
	JOINT RightUpLeg
	{
		OFFSET -9.98441 0.00000 0.00000
		CHANNELS 3 Zrotation Xrotation Yrotation
		JOINT RightLeg
		{
			OFFSET 0.00000 -42.11790 0.00000
			CHANNELS 3 Zrotation Xrotation Yrotation
			JOINT RightFoot
			{
				OFFSET 0.00000 -45.00020 -0.00001
				CHANNELS 3 Zrotation Xrotation Yrotation
				JOINT RightForeFoot
				{
					OFFSET 0.00000 -3.74820 0.00000
					CHANNELS 3 Zrotation Xrotation Yrotation
					JOINT RightToeBase
					{
						OFFSET 0.00000 0.06325 14.43120
						CHANNELS 3 Zrotation Xrotation Yrotation
						End site
						{
							OFFSET 0.00000 0.00000 0.00000
						}
					}
				}
			}
		}
	}
	JOINT LeftUpLeg
	{
		OFFSET 9.98441 0.00000 0.00000
		CHANNELS 3 Zrotation Xrotation Yrotation
		JOINT LeftLeg
		{
			OFFSET 0.00000 -42.11800 0.00000
			CHANNELS 3 Zrotation Xrotation Yrotation
			JOINT LeftFoot
			{
				OFFSET 0.00000 -45.00070 0.00000
				CHANNELS 3 Zrotation Xrotation Yrotation
				JOINT LeftForeFoot
				{
					OFFSET 0.00000 -3.74824 0.00000
					CHANNELS 3 Zrotation Xrotation Yrotation
					JOINT LeftToeBase
					{
						OFFSET 0.00000 0.06325 14.43110
						CHANNELS 3 Zrotation Xrotation Yrotation
						End site
						{
							OFFSET 0.00000 0.00000 0.00000
						}
					}
				}
			}
		}
	}
}
MOTION
Frames: 4
Frame Time: 0.050000
-0.02469484406923468 -0.0007684763407469677 0.022030495718037803 0.02157435828286677 0.005283012152737807 0.026070415784986395 -3.7121346161257147 3.076109561211163 -0.6317809517298215 -0.7933997035697923 3.3028566290939496 0.3705567687807019 -0.9500413901583501 -1.3624964773374884 -2.281929176042464 -0.3166161914729854 0.43999032098693547 -0.9864879609247543 -0.8065187116685645 10.4410448371357 1.5412328079784385 -0.16232187685898045 -0.8602562619809595 1.7704928874216403 -0.5228639688804606 -15.746971105471832 0.2272187164614938 0.45524033674727116 0.6089986576065763 -11.359787929891993 69.12514322059165 23.74191439185621 9.104011664292013 20.56864449936541 5.904790374093891 81.88328877621595 25.68077175886267 -0.1902437873135998 -6.316266974936049 4.525419087118564 -0.07851559004361935 -1.6168500942150845 -0.0015387147008087314 -0.04576816262227065 -56.20369026354672 -0.047532618155631916 0.019629097959529305 -56.2426186601232 -38.72506117669805 0.014055930265813608 0.027296948445881604 0.013811962937179255 -0.001783455151499309 0.032136731570914845 0.013197792192957662 0.0398126376556102 0.04447015534815833 -36.72982112532572 0.026977674746074595 0.028495185717651323 0.039600215409982105 0.029086613175949405 -0.010001046847352865 0.0258033295362415 -0.0054983288409389715 -0.005748034119637698 -19.728668511398496 -0.048438803051512824 0.0439480796229754 -0.04467377926933847 0.008962054312639998 0.03663324499626898 0.039640800116723704 -0.038845670042258675 -0.04503174875930283 24.04035002673281 -0.026664767574770782 -0.011764124176581861 28.826348351519723 -0.03162503485116284 -0.019744214420373617 28.913039436052575 -0.006870164103615099 0.02401925780147455 3.635546500932145 1.1299058903465473 9.902693332550369 -62.87199194375551 26.157455206181336 -21.574127547979497 -42.08188658389274 6.44569853550024 -82.07392167723596 -16.214814199313157 1.510091535299272 -0.7596230406256181 -0.5100077231432739 0.04228395159199316 -8.135241388253556 -0.04433735267473892 -0.04185863671475173 44.55712694118001 -0.0010751643722517932 -0.03604127204327771 44.61720695498764 12.418465984924254 -0.02092006767243661 0.017031390031650002 0.045606772478274195 0.029804569711427687 -0.025391283296270904 -0.03266896652883889 0.028423595563231544 5.298644354312024e-05 11.097218186954864 0.013596648545551173 -0.048385957252278615 0.023552225357114032 -0.018214293489404135 0.014420328365732198 0.04193040085213426 0.0014111291901938502 -0.03153940897267115 4.780439717758132 0.007636406834701697 -0.009840412651205726 0.03474330532328006 -0.010454236384670851 -0.03971546065564042 0.008140927749732053 -0.010999355997091906 -0.017685028591558263 -5.62209061561092 0.02492483602145291 -0.03807879260884281 -6.760118024019745 0.002296222307753974 0.002533217380082447 -6.763680468503447 0.025241193306465317 -0.03611017601114378 -0.03241471032891018 -0.0066799561296951825 0.045187243246578385 8.038051103140578 3.507403610268767 -19.172352257712326 -0.006213747469505273 10.402396943353034 -0.011484315537094392 -5.589531849835502 -15.653059873137302 3.163405191123642 0.02550836492721741 -0.0003394102307976556 0.04636905128926417 -0.007764534551919014 4.7175618405495525 -1.4553585017430783e-06 12.411743579368428 -8.255747498851823 6.9130781886742225 0.04404927684188558 46.34027896692007 -0.009831212971201592 -4.293654261655154 -14.747454569560963 -3.882234378051876 0.014273392818987013 0.033423809922151666 -0.02803528870450462 0.0040182073472591305 -10.74659043636873 -0.020285485929905193 
0.007403924512834082 -0.04123435574382697 -0.010117720242345852 0.004695787148744139 0.02074274873649137 0.03151361931749697 -3.7885343549932524 3.098123979325921 -0.5799044421191336 -0.8110954710947813 3.3085421436837494 0.3594264073064804 -1.00446183491171 -1.319572050262467 -1.8869383460471494 -0.34104145275764824 0.3934955771301919 -1.0346685676610419 -0.7595544061405916 10.418753377484029 1.5893358878952686 -0.16396144075623853 -0.9326393430891655 1.6311252432558052 -0.5450698123195902 -15.889646020678157 0.20245550702024934 0.37041743867859617 0.6638135672815596 -11.646186700734699 69.6098249521741 24.156760205162882 7.1000085024826065 16.444288622403494 5.749892404194947 75.35853842421385 26.08402826315067 -0.15542646860627554 -5.956105597552191 4.492962871250482 -0.12360887210078784 -1.629335890974535 0.02464366571355685 -0.007821138649005742 -56.240839673327535 0.03047848263951283 0.04357452613217852 -56.26345340535876 -38.811465994180736 -0.019693051674557847 0.039373752705108435 0.010817500636248423 -0.02189573140174615 -0.009115241773616107 -0.033445468794036884 0.017704814841251578 -0.021499089356217853 -36.69714812221017 0.013305660982578255 -0.008831205090450643 0.017680859151893467 0.006990132114456942 0.04354170985876439 -0.0115229812232911 -0.03071184537437916 0.0008160102787985802 -19.753025484971058 0.02009826896534154 -0.01711962566381315 -0.009872193461704053 -0.03528233835026833 -0.00818482430946511 0.04892586080158557 -0.04237763728686368 -0.0009262117199040294 24.053359101825574 0.029951371255373147 -0.003933431790782305 28.892044380101147 -0.014697896268256952 -0.00891382618064646 28.90569036144678 -0.03806454695715451 -0.003617977630736156 3.0550844546007196 1.0453940553231826 10.368921945177103 -64.82395678000715 26.00544949895716 -16.765602822782093 -39.00271013157867 6.896098967721303 -75.83593513217166 -15.859282963763237 1.905937898253638 -0.6967326837895468 -0.4599255952215272 0.06942943188850445 -8.07385220604083 0.010368923775341108 0.023619119868670737 44.56206538428491 0.014926304476291428 -0.013911966405077249 44.53132655993721 12.447940162865232 0.03855657633939533 0.025118623873132056 -0.019673157545821728 0.01905338073106843 -0.019706909867774937 -0.0251494665666166 0.02405277998681201 -0.007283600909723413 11.11385587277686 -0.04101712290085101 -0.00942941609613686 -0.012220550382089836 -0.03709281203934327 -0.0030667127665918847 -0.016378604461238268 0.04124018412451603 -0.04963010452463345 4.815212261172672 0.043850273212963156 0.019185095120018248 -0.04717725634106736 0.006210712776877938 -0.018744954876926834 0.011492322206420047 0.04274217130182714 0.03317469929642717 -5.576336750022855 0.02348127654356994 -0.04861631088426158 -6.741957158423455 0.018243297077164187 0.02152721693805673 -6.760102697826034 0.03619966719966702 -0.020989117392494764 0.017315174218298483 0.04424586413384297 0.04603300193245038 8.050575987935025 3.5213797718194098 -19.17644386675332 -0.041323090040014325 10.444515915157734 -0.00801209510658342 -5.6030769381226255 -15.65047751881972 3.160476448372012 -0.02133547177621252 -0.03163401995773322 0.03858209123524493 -0.02954659334161889 4.733882464035777 0.03271990745854295 12.426207843708122 -8.247160954259659 6.881712611622283 0.023158417539438075 46.34050219729076 -0.013729412046362988 -4.360101825465983 -14.719545500468442 -3.8347912304864225 -0.010048479061452563 -0.03640422535786184 -0.0091765207065862 -0.029424491590750845 -10.69869965273861 -0.018018807255423562 
0.015446504265374023 -0.028407900129838404 0.024119570083341656 0.019012078647619793 -0.02544247035993378 0.011139230601058182 -3.8483357182860196 3.0032538991764226 -0.6167352116439394 -0.8168806876778743 3.357794805198023 0.35462906380105275 -1.0601148833854868 -1.4282381388135117 -1.6347875438589408 -0.374966573469162 0.4392144684453993 -0.9936490167983594 -0.7576506303298448 10.346080979909711 1.5909021477276966 -0.10134580113501937 -0.9941556927997859 1.5792885375785586 -0.44880189090124056 -15.94799549202572 0.1362199098339362 0.24167143942623306 0.7369277435601838 -11.852805281484605 69.99267970502835 24.60570133450906 5.489218154766038 13.102477808394902 5.175906429710923 69.84027991430894 26.53095705818278 -0.21844675133682998 -5.657822731379321 4.563705929096032 -0.08871135843181004 -1.5629856278941703 0.018236107536469984 0.04872059416651097 -56.27589037737622 0.014745937977397363 0.0008382572287165162 -56.19434106859948 -38.76553807111057 0.045188408904961765 -0.039022254506377745 0.00945851516496886 0.007432017848121081 -0.032427626801668094 -0.009418879978050968 -0.03893952492037771 0.04850313109776919 -36.70310352818485 -0.026752362198589688 -0.02148857908312726 0.0465875530093221 -0.014851908534336062 0.013961639449677567 -0.018500190813075596 -0.0015634799344314918 -0.03948721828307471 -19.755456170224004 -0.018660065112627633 -0.04913757786880135 0.02473166858116144 -0.0212005550473335 -0.0465013209552242 0.011146716739391558 0.002160224143636104 0.0013029440169379162 24.047673222660276 0.017166899512706533 0.02106946400101971 28.897727882048766 -0.0052382623804963745 0.0002490620013957376 28.85593025871949 -0.0300981713382909 -0.0474450385695659 2.7267046354659152 0.987907467734534 10.664858896162988 -66.60303860059885 25.81034878425894 -13.099846308002398 -37.016640473495386 7.012049920745784 -70.41158581766388 -15.630890977468857 2.1196906557190474 -0.680861242856172 -0.4504277914625682 0.08694004035737632 -8.11830726409557 -0.02024219775320771 0.006206833774770872 44.57540558739738 0.03949293363306481 -0.017800915044240407 44.61079809831194 12.505583082457328 0.005138618722289334 0.022953620323228653 0.003909782868404878 -0.02330492632715015 0.03956970890130499 6.553980468929411e-06 0.005955896933257558 -0.012820335436707363 11.099025741792572 -0.003878719974498141 -0.017557150485649348 -0.014667450833004357 -0.017568136610205707 0.024891534809291318 0.04056250939846047 0.0495665575592021 0.01645813528049235 4.7590309582046215 -0.03694032896055712 -0.0027657469338184374 0.020176825913673008 0.015275423918711709 -0.018226526986812288 0.021663867404378256 -0.0018359501628650104 -0.033766770449106386 -5.571562110308224 0.015489091839906365 -0.016866826778093775 -6.739783516351426 0.000837316295778871 0.03030153352373274 -6.708888794024495 0.0059095188926772966 -0.0411351165845688 -0.04608614303409236 -0.011855051508100045 0.023417405504761096 8.079318715049714 3.4617734765213175 -19.173015196782103 0.03701479620015587 10.366583413811194 0.026008306293363908 -5.606917244035489 -15.707308173419287 3.15954737276109 -0.0029146351525783268 0.016596862243901302 -0.008690034125650921 0.04542261292657899 4.738027859267952 0.003398566683354361 12.469559766556916 -8.257513791104314 6.8832792522810555 -0.017751689500437373 46.340288620826165 0.00313328621037714 -4.348534997710585 -14.701662825023158 -3.8179787558234484 0.04562849033834933 -0.04833683251003813 0.048638570300234545 -0.013272985669546537 -10.744449488102209 0.03995899291999499 
0.0031249719988410626 -0.019329620804808736 0.002033893353548293 -0.013648028135274015 -0.01734562649898046 -0.033524003241573154 -3.788114323038073 2.8454852715732075 -0.6223205189468917 -0.872029882879176 3.3425640539001042 0.3559739380959663 -1.0677683464744787 -1.4522730853659092 -1.5176196488857416 -0.42508952998842103 0.4057894052437001 -0.8874148688497044 -0.6416082778488956 10.363121047354843 1.5701050445929654 -0.09996476283949626 -0.9836477885377962 1.2949374603057564 -0.4287758546939352 -15.937794397459035 0.12416904460116326 -0.016072690947803808 0.7855539354716599 -12.196076637149977 70.45150072158532 24.54890662028279 4.360892869688374 9.889846520791481 3.8602233625276274 67.03735904774082 26.383401481141984 -0.21732204944551298 -5.31552549073307 4.515125962867148 -0.13820752298332015 -1.5887522295040986 -0.012825447079924331 0.022645657782094417 -56.22993549419552 0.012728875391225788 0.01925197669942126 -56.242687655694304 -38.813826042312094 0.048132621198836045 -0.040384076177477794 -0.03319558481857327 -0.0386860783068212 0.035629481811920896 0.029532956567904195 0.019227392528907525 -0.0456980655186583 -36.69397182180248 0.02705960216698723 0.03257917347359982 0.04916325923121804 0.013458869819503928 -0.028890725661402876 0.02263270273979142 -0.018673081484191376 0.025205917556350432 -19.72968152447538 -0.04184513779059942 -0.034197905996882404 -0.02430782231536858 0.026913257200607436 0.024253446808662777 0.009195693322195737 0.02160977249769794 -0.033140817812534196 24.015982899354853 0.01141715619462726 0.008923067552733454 28.86661570675273 -0.019076964748650425 -0.045424899773964356 28.849586121897065 -0.014602475582453664 0.015921279690702773 2.59599591966475 0.9264805959485184 10.951311715065712 -67.80671419772939 25.870067928936034 -10.65240850789036 -34.17232982194393 6.391646150345421 -66.5257756747409 -15.084019241581318 2.2339237068947155 -0.578275054772049 -0.4862888809327731 0.031986295119644306 -8.160086719883731 0.04141290164262788 -0.03798916637815515 44.55735887158476 0.006243957893443895 -0.03040215896516047 44.59489068477111 12.456007899126355 -0.044941338879889735 -0.030598729642174523 -0.03104457485438184 0.024508558097918215 0.011581416739562533 -0.0016870424078723745 0.023055248493317547 -0.002176472780803987 11.144390704340783 -0.011353998748382116 0.022381934960686536 -0.04421403774895976 0.03398528203118144 0.039150402762162376 0.01683453650733838 0.0362663958188031 -0.008954007712726308 4.8132413113109065 -0.04973000585119557 -0.012588668079358118 -0.011150302530828705 -0.010327390996028302 -0.0318631240908299 0.027758815354206254 -0.04024504427117697 -0.031671493619170724 -5.621515259408311 0.020610866452849215 -0.03815614220672746 -6.688784112689918 0.04126202066094166 0.000644700584584046 -6.7248824488722905 0.0250157438151158 -0.023924727393443656 -0.026402541062454793 0.006374355942860678 0.007215473163357514 8.005524556796015 3.5422036263511383 -19.244937100970695 -0.018107678984238675 10.422052858775954 0.017390247474684237 -5.6166147353467375 -15.668078977956032 3.1645325220425597 0.001163666773581552 -0.004163789017434806 -0.0088194921745879 -0.02309868529251894 4.652515027996647 0.03945508624980972 12.418813085981519 -8.284273317357354 6.842216003771204 -0.0006200489227866036 46.39407941938563 -0.023367513934278543 -4.314865932196056 -14.78600898956733 -3.8621053161795627 -0.026064131009757 0.012549602443124915 0.002720487896702941 -0.042891292360632896 -10.761629732961715 -0.012430362449716473 
